<?xml version="1.0" encoding="UTF-8" standalone="no"?>
<!DOCTYPE svg PUBLIC "-//W3C//DTD SVG 1.1//EN"
 "http://www.w3.org/Graphics/SVG/1.1/DTD/svg11.dtd">
<!-- Generated by graphviz version 2.43.0 (0)
 -->
<!-- Title: logic::Platform Pages: 1 -->
<svg width="535pt" height="142pt"
 viewBox="0.00 0.00 535.00 142.00" xmlns="http://www.w3.org/2000/svg" xmlns:xlink="http://www.w3.org/1999/xlink">
<g id="graph0" class="graph" transform="scale(1 1) rotate(0) translate(4 138)">
<title>logic::Platform</title>
<polygon fill="white" stroke="transparent" points="-4,4 -4,-138 531,-138 531,4 -4,4"/>
<!-- Node1 -->
<g id="node1" class="node">
<title>Node1</title>
<g id="a_node1"><a xlink:title=" ">
<polygon fill="#bfbfbf" stroke="black" points="258,-57.5 258,-76.5 346,-76.5 346,-57.5 258,-57.5"/>
<text text-anchor="middle" x="302" y="-64.5" font-family="Helvetica,sans-Serif" font-size="10.00">logic::Platform</text>
</a>
</g>
</g>
<!-- Node4 -->
<g id="node4" class="node">
<title>Node4</title>
<g id="a_node4"><a xlink:href="classlogic_1_1Platform__Horizontal.html" target="_top" xlink:title=" ">
<polygon fill="white" stroke="black" points="383,-114.5 383,-133.5 526,-133.5 526,-114.5 383,-114.5"/>
<text text-anchor="middle" x="454.5" y="-121.5" font-family="Helvetica,sans-Serif" font-size="10.00">logic::Platform_Horizontal</text>
</a>
</g>
</g>
<!-- Node1&#45;&gt;Node4 -->
<g id="edge3" class="edge">
<title>Node1&#45;&gt;Node4</title>
<path fill="none" stroke="midnightblue" d="M329.69,-81.39C344.75,-89.12 364.08,-98.38 382,-105 391.64,-108.56 402.23,-111.75 412.25,-114.46"/>
<polygon fill="midnightblue" stroke="midnightblue" points="330.95,-78.11 320.47,-76.58 327.72,-84.31 330.95,-78.11"/>
</g>
<!-- Node5 -->
<g id="node5" class="node">
<title>Node5</title>
<g id="a_node5"><a xlink:href="classlogic_1_1Platform__Static.html" target="_top" xlink:title=" ">
<polygon fill="white" stroke="black" points="394,-76.5 394,-95.5 515,-95.5 515,-76.5 394,-76.5"/>
<text text-anchor="middle" x="454.5" y="-83.5" font-family="Helvetica,sans-Serif" font-size="10.00">logic::Platform_Static</text>
</a>
</g>
</g>
<!-- Node1&#45;&gt;Node5 -->
<g id="edge4" class="edge">
<title>Node1&#45;&gt;Node5</title>
<path fill="none" stroke="midnightblue" d="M356.14,-73.71C368.33,-75.25 381.37,-76.89 393.82,-78.47"/>
<polygon fill="midnightblue" stroke="midnightblue" points="356.49,-70.22 346.13,-72.44 355.61,-77.17 356.49,-70.22"/>
</g>
<!-- Node6 -->
<g id="node6" class="node">
<title>Node6</title>
<g id="a_node6"><a xlink:href="classlogic_1_1Platform__Temporary.html" target="_top" xlink:title=" ">
<polygon fill="white" stroke="black" points="382,-38.5 382,-57.5 527,-57.5 527,-38.5 382,-38.5"/>
<text text-anchor="middle" x="454.5" y="-45.5" font-family="Helvetica,sans-Serif" font-size="10.00">logic::Platform_Temporary</text>
</a>
</g>
</g>
<!-- Node1&#45;&gt;Node6 -->
<g id="edge5" class="edge">
<title>Node1&#45;&gt;Node6</title>
<path fill="none" stroke="midnightblue" d="M356.11,-60.3C364.48,-59.24 373.25,-58.13 381.95,-57.03"/>
<polygon fill="midnightblue" stroke="midnightblue" points="355.61,-56.83 346.13,-61.56 356.49,-63.78 355.61,-56.83"/>
</g>
<!-- Node7 -->
<g id="node7" class="node">
<title>Node7</title>
<g id="a_node7"><a xlink:href="classlogic_1_1Platform__Vertical.html" target="_top" xlink:title=" ">
<polygon fill="white" stroke="black" points="389.5,-0.5 389.5,-19.5 519.5,-19.5 519.5,-0.5 389.5,-0.5"/>
<text text-anchor="middle" x="454.5" y="-7.5" font-family="Helvetica,sans-Serif" font-size="10.00">logic::Platform_Vertical</text>
</a>
</g>
</g>
<!-- Node1&#45;&gt;Node7 -->
<g id="edge6" class="edge">
<title>Node1&#45;&gt;Node7</title>
<path fill="none" stroke="midnightblue" d="M329.69,-52.61C344.75,-44.88 364.08,-35.62 382,-29 391.64,-25.44 402.23,-22.25 412.25,-19.54"/>
<polygon fill="midnightblue" stroke="midnightblue" points="327.72,-49.69 320.47,-57.42 330.95,-55.89 327.72,-49.69"/>
</g>
<!-- Node2 -->
<g id="node2" class="node">
<title>Node2</title>
<g id="a_node2"><a xlink:href="classlogic_1_1EntityModel.html" target="_top" xlink:title=" ">
<polygon fill="white" stroke="black" points="118,-57.5 118,-76.5 222,-76.5 222,-57.5 118,-57.5"/>
<text text-anchor="middle" x="170" y="-64.5" font-family="Helvetica,sans-Serif" font-size="10.00">logic::EntityModel</text>
</a>
</g>
</g>
<!-- Node2&#45;&gt;Node1 -->
<g id="edge1" class="edge">
<title>Node2&#45;&gt;Node1</title>
<path fill="none" stroke="midnightblue" d="M232.09,-67C240.74,-67 249.49,-67 257.71,-67"/>
<polygon fill="midnightblue" stroke="midnightblue" points="232.01,-63.5 222.01,-67 232.01,-70.5 232.01,-63.5"/>
</g>
<!-- Node3 -->
<g id="node3" class="node">
<title>Node3</title>
<g id="a_node3"><a xlink:href="classlogic_1_1Subject.html" target="_top" xlink:title=" ">
<polygon fill="white" stroke="black" points="0,-57.5 0,-76.5 82,-76.5 82,-57.5 0,-57.5"/>
<text text-anchor="middle" x="41" y="-64.5" font-family="Helvetica,sans-Serif" font-size="10.00">logic::Subject</text>
</a>
</g>
</g>
<!-- Node3&#45;&gt;Node2 -->
<g id="edge2" class="edge">
<title>Node3&#45;&gt;Node2</title>
<path fill="none" stroke="midnightblue" d="M92.26,-67C100.69,-67 109.44,-67 117.89,-67"/>
<polygon fill="midnightblue" stroke="midnightblue" points="92.18,-63.5 82.18,-67 92.18,-70.5 92.18,-63.5"/>
</g>
</g>
</svg>
