<?xml version="1.0" encoding="UTF-8" standalone="no"?>
<!DOCTYPE svg PUBLIC "-//W3C//DTD SVG 1.1//EN"
 "http://www.w3.org/Graphics/SVG/1.1/DTD/svg11.dtd">
<!-- Generated by graphviz version 2.43.0 (0)
 -->
<!-- Title: logic::Bonus Pages: 1 -->
<svg width="186pt" height="196pt"
 viewBox="0.00 0.00 185.50 196.00" xmlns="http://www.w3.org/2000/svg" xmlns:xlink="http://www.w3.org/1999/xlink">
<g id="graph0" class="graph" transform="scale(1 1) rotate(0) translate(4 192)">
<title>logic::Bonus</title>
<polygon fill="white" stroke="transparent" points="-4,4 -4,-192 181.5,-192 181.5,4 -4,4"/>
<!-- Node1 -->
<g id="node1" class="node">
<title>Node1</title>
<g id="a_node1"><a xlink:title=" ">
<polygon fill="#bfbfbf" stroke="black" points="52,-56.5 52,-75.5 128,-75.5 128,-56.5 52,-56.5"/>
<text text-anchor="middle" x="90" y="-63.5" font-family="Helvetica,sans-Serif" font-size="10.00">logic::Bonus</text>
</a>
</g>
</g>
<!-- Node4 -->
<g id="node4" class="node">
<title>Node4</title>
<g id="a_node4"><a xlink:href="classlogic_1_1Jetpack.html" target="_top" xlink:title=" ">
<polygon fill="white" stroke="black" points="0,-0.5 0,-19.5 82,-19.5 82,-0.5 0,-0.5"/>
<text text-anchor="middle" x="41" y="-7.5" font-family="Helvetica,sans-Serif" font-size="10.00">logic::Jetpack</text>
</a>
</g>
</g>
<!-- Node1&#45;&gt;Node4 -->
<g id="edge3" class="edge">
<title>Node1&#45;&gt;Node4</title>
<path fill="none" stroke="midnightblue" d="M74.97,-48.43C66.38,-38.97 55.96,-27.48 48.94,-19.75"/>
<polygon fill="midnightblue" stroke="midnightblue" points="72.6,-51.03 81.91,-56.08 77.78,-46.33 72.6,-51.03"/>
</g>
<!-- Node5 -->
<g id="node5" class="node">
<title>Node5</title>
<g id="a_node5"><a xlink:href="classlogic_1_1Spring.html" target="_top" xlink:title=" ">
<polygon fill="white" stroke="black" points="100.5,-0.5 100.5,-19.5 177.5,-19.5 177.5,-0.5 100.5,-0.5"/>
<text text-anchor="middle" x="139" y="-7.5" font-family="Helvetica,sans-Serif" font-size="10.00">logic::Spring</text>
</a>
</g>
</g>
<!-- Node1&#45;&gt;Node5 -->
<g id="edge4" class="edge">
<title>Node1&#45;&gt;Node5</title>
<path fill="none" stroke="midnightblue" d="M105.03,-48.43C113.62,-38.97 124.04,-27.48 131.06,-19.75"/>
<polygon fill="midnightblue" stroke="midnightblue" points="102.22,-46.33 98.09,-56.08 107.4,-51.03 102.22,-46.33"/>
</g>
<!-- Node2 -->
<g id="node2" class="node">
<title>Node2</title>
<g id="a_node2"><a xlink:href="classlogic_1_1EntityModel.html" target="_top" xlink:title=" ">
<polygon fill="white" stroke="black" points="38,-112.5 38,-131.5 142,-131.5 142,-112.5 38,-112.5"/>
<text text-anchor="middle" x="90" y="-119.5" font-family="Helvetica,sans-Serif" font-size="10.00">logic::EntityModel</text>
</a>
</g>
</g>
<!-- Node2&#45;&gt;Node1 -->
<g id="edge1" class="edge">
<title>Node2&#45;&gt;Node1</title>
<path fill="none" stroke="midnightblue" d="M90,-101.8C90,-92.91 90,-82.78 90,-75.75"/>
<polygon fill="midnightblue" stroke="midnightblue" points="86.5,-102.08 90,-112.08 93.5,-102.08 86.5,-102.08"/>
</g>
<!-- Node3 -->
<g id="node3" class="node">
<title>Node3</title>
<g id="a_node3"><a xlink:href="classlogic_1_1Subject.html" target="_top" xlink:title=" ">
<polygon fill="white" stroke="black" points="49,-168.5 49,-187.5 131,-187.5 131,-168.5 49,-168.5"/>
<text text-anchor="middle" x="90" y="-175.5" font-family="Helvetica,sans-Serif" font-size="10.00">logic::Subject</text>
</a>
</g>
</g>
<!-- Node3&#45;&gt;Node2 -->
<g id="edge2" class="edge">
<title>Node3&#45;&gt;Node2</title>
<path fill="none" stroke="midnightblue" d="M90,-157.8C90,-148.91 90,-138.78 90,-131.75"/>
<polygon fill="midnightblue" stroke="midnightblue" points="86.5,-158.08 90,-168.08 93.5,-158.08 86.5,-158.08"/>
</g>
</g>
</svg>
