<?xml version="1.0" encoding="UTF-8" standalone="no"?>
<!DOCTYPE svg PUBLIC "-//W3C//DTD SVG 1.1//EN"
 "http://www.w3.org/Graphics/SVG/1.1/DTD/svg11.dtd">
<!-- Generated by graphviz version 2.43.0 (0)
 -->
<!-- Title: representation::Platform_GR Pages: 1 -->
<svg width="643pt" height="186pt"
 viewBox="0.00 0.00 643.00 186.00" xmlns="http://www.w3.org/2000/svg" xmlns:xlink="http://www.w3.org/1999/xlink">
<g id="graph0" class="graph" transform="scale(1 1) rotate(0) translate(4 182)">
<title>representation::Platform_GR</title>
<polygon fill="white" stroke="transparent" points="-4,4 -4,-182 639,-182 639,4 -4,4"/>
<!-- Node1 -->
<g id="node1" class="node">
<title>Node1</title>
<g id="a_node1"><a xlink:title=" ">
<polygon fill="#bfbfbf" stroke="black" points="308,-79 308,-98 463,-98 463,-79 308,-79"/>
<text text-anchor="middle" x="385.5" y="-86" font-family="Helvetica,sans-Serif" font-size="10.00">representation::Platform_GR</text>
</a>
</g>
</g>
<!-- Node4 -->
<g id="node4" class="node">
<title>Node4</title>
<g id="a_node4"><a xlink:href="classrepresentation_1_1Platform__Horizontal__GR.html" target="_top" xlink:title=" ">
<polygon fill="white" stroke="black" points="499,-147.5 499,-177.5 635,-177.5 635,-147.5 499,-147.5"/>
<text text-anchor="start" x="507" y="-165.5" font-family="Helvetica,sans-Serif" font-size="10.00">representation::Platform</text>
<text text-anchor="middle" x="567" y="-154.5" font-family="Helvetica,sans-Serif" font-size="10.00">_Horizontal_GR</text>
</a>
</g>
</g>
<!-- Node1&#45;&gt;Node4 -->
<g id="edge3" class="edge">
<title>Node1&#45;&gt;Node4</title>
<path fill="none" stroke="midnightblue" d="M416.39,-102.51C438.91,-112.89 470.66,-127.14 499,-138.5 506.57,-141.53 514.69,-144.6 522.57,-147.48"/>
<polygon fill="midnightblue" stroke="midnightblue" points="417.58,-99.21 407.04,-98.18 414.64,-105.56 417.58,-99.21"/>
</g>
<!-- Node5 -->
<g id="node5" class="node">
<title>Node5</title>
<g id="a_node5"><a xlink:href="classrepresentation_1_1Platform__Static__GR.html" target="_top" xlink:title=" ">
<polygon fill="white" stroke="black" points="499,-98.5 499,-128.5 635,-128.5 635,-98.5 499,-98.5"/>
<text text-anchor="start" x="507" y="-116.5" font-family="Helvetica,sans-Serif" font-size="10.00">representation::Platform</text>
<text text-anchor="middle" x="567" y="-105.5" font-family="Helvetica,sans-Serif" font-size="10.00">_Static_GR</text>
</a>
</g>
</g>
<!-- Node1&#45;&gt;Node5 -->
<g id="edge4" class="edge">
<title>Node1&#45;&gt;Node5</title>
<path fill="none" stroke="midnightblue" d="M465.08,-99.44C476.29,-101.01 487.74,-102.6 498.71,-104.13"/>
<polygon fill="midnightblue" stroke="midnightblue" points="465.26,-95.94 454.87,-98.02 464.29,-102.87 465.26,-95.94"/>
</g>
<!-- Node6 -->
<g id="node6" class="node">
<title>Node6</title>
<g id="a_node6"><a xlink:href="classrepresentation_1_1Platform__Temporary__GR.html" target="_top" xlink:title=" ">
<polygon fill="white" stroke="black" points="499,-49.5 499,-79.5 635,-79.5 635,-49.5 499,-49.5"/>
<text text-anchor="start" x="507" y="-67.5" font-family="Helvetica,sans-Serif" font-size="10.00">representation::Platform</text>
<text text-anchor="middle" x="567" y="-56.5" font-family="Helvetica,sans-Serif" font-size="10.00">_Temporary_GR</text>
</a>
</g>
</g>
<!-- Node1&#45;&gt;Node6 -->
<g id="edge5" class="edge">
<title>Node1&#45;&gt;Node6</title>
<path fill="none" stroke="midnightblue" d="M467.67,-77.65C478.14,-76.25 488.77,-74.83 498.98,-73.46"/>
<polygon fill="midnightblue" stroke="midnightblue" points="467.15,-74.19 457.7,-78.98 468.08,-81.12 467.15,-74.19"/>
</g>
<!-- Node7 -->
<g id="node7" class="node">
<title>Node7</title>
<g id="a_node7"><a xlink:href="classrepresentation_1_1Platform__Vertical__GR.html" target="_top" xlink:title=" ">
<polygon fill="white" stroke="black" points="499,-0.5 499,-30.5 635,-30.5 635,-0.5 499,-0.5"/>
<text text-anchor="start" x="507" y="-18.5" font-family="Helvetica,sans-Serif" font-size="10.00">representation::Platform</text>
<text text-anchor="middle" x="567" y="-7.5" font-family="Helvetica,sans-Serif" font-size="10.00">_Vertical_GR</text>
</a>
</g>
</g>
<!-- Node1&#45;&gt;Node7 -->
<g id="edge6" class="edge">
<title>Node1&#45;&gt;Node7</title>
<path fill="none" stroke="midnightblue" d="M416.83,-74.63C439.34,-64.5 470.88,-50.65 499,-39.5 506.58,-36.5 514.71,-33.44 522.59,-30.57"/>
<polygon fill="midnightblue" stroke="midnightblue" points="415.14,-71.56 407.47,-78.86 418.03,-77.93 415.14,-71.56"/>
</g>
<!-- Node2 -->
<g id="node2" class="node">
<title>Node2</title>
<g id="a_node2"><a xlink:href="classrepresentation_1_1EntityView.html" target="_top" xlink:title=" ">
<polygon fill="white" stroke="black" points="126,-79 126,-98 272,-98 272,-79 126,-79"/>
<text text-anchor="middle" x="199" y="-86" font-family="Helvetica,sans-Serif" font-size="10.00">representation::EntityView</text>
</a>
</g>
</g>
<!-- Node2&#45;&gt;Node1 -->
<g id="edge1" class="edge">
<title>Node2&#45;&gt;Node1</title>
<path fill="none" stroke="midnightblue" d="M282.39,-88.5C290.86,-88.5 299.45,-88.5 307.86,-88.5"/>
<polygon fill="midnightblue" stroke="midnightblue" points="282.13,-85 272.13,-88.5 282.13,-92 282.13,-85"/>
</g>
<!-- Node3 -->
<g id="node3" class="node">
<title>Node3</title>
<g id="a_node3"><a xlink:href="classlogic_1_1Observer.html" target="_top" xlink:title=" ">
<polygon fill="white" stroke="black" points="0,-79 0,-98 90,-98 90,-79 0,-79"/>
<text text-anchor="middle" x="45" y="-86" font-family="Helvetica,sans-Serif" font-size="10.00">logic::Observer</text>
</a>
</g>
</g>
<!-- Node3&#45;&gt;Node2 -->
<g id="edge2" class="edge">
<title>Node3&#45;&gt;Node2</title>
<path fill="none" stroke="midnightblue" d="M100.54,-88.5C108.75,-88.5 117.32,-88.5 125.83,-88.5"/>
<polygon fill="midnightblue" stroke="midnightblue" points="100.37,-85 90.37,-88.5 100.37,-92 100.37,-85"/>
</g>
</g>
</svg>
