<?xml version="1.0" encoding="UTF-8" standalone="no"?>
<!DOCTYPE svg PUBLIC "-//W3C//DTD SVG 1.1//EN"
 "http://www.w3.org/Graphics/SVG/1.1/DTD/svg11.dtd">
<!-- Generated by graphviz version 2.43.0 (0)
 -->
<!-- Title: representation::EntityView Pages: 1 -->
<svg width="656pt" height="263pt"
 viewBox="0.00 0.00 656.00 262.50" xmlns="http://www.w3.org/2000/svg" xmlns:xlink="http://www.w3.org/1999/xlink">
<g id="graph0" class="graph" transform="scale(1 1) rotate(0) translate(4 258.5)">
<title>representation::EntityView</title>
<polygon fill="white" stroke="transparent" points="-4,4 -4,-258.5 652,-258.5 652,4 -4,4"/>
<!-- Node1 -->
<g id="node1" class="node">
<title>Node1</title>
<g id="a_node1"><a xlink:title=" ">
<polygon fill="#bfbfbf" stroke="black" points="126,-137 126,-156 272,-156 272,-137 126,-137"/>
<text text-anchor="middle" x="199" y="-144" font-family="Helvetica,sans-Serif" font-size="10.00">representation::EntityView</text>
</a>
</g>
</g>
<!-- Node3 -->
<g id="node3" class="node">
<title>Node3</title>
<g id="a_node3"><a xlink:href="classrepresentation_1_1BGTile__GR.html" target="_top" xlink:title=" ">
<polygon fill="white" stroke="black" points="312.5,-221 312.5,-240 458.5,-240 458.5,-221 312.5,-221"/>
<text text-anchor="middle" x="385.5" y="-228" font-family="Helvetica,sans-Serif" font-size="10.00">representation::BGTile_GR</text>
</a>
</g>
</g>
<!-- Node1&#45;&gt;Node3 -->
<g id="edge2" class="edge">
<title>Node1&#45;&gt;Node3</title>
<path fill="none" stroke="midnightblue" d="M221.17,-161.86C242.24,-176.51 275.98,-198.24 308,-211.5 316.98,-215.22 326.86,-218.33 336.45,-220.9"/>
<polygon fill="midnightblue" stroke="midnightblue" points="223.14,-158.97 212.95,-156.07 219.11,-164.69 223.14,-158.97"/>
</g>
<!-- Node4 -->
<g id="node4" class="node">
<title>Node4</title>
<g id="a_node4"><a xlink:href="classrepresentation_1_1Bonus__GR.html" target="_top" xlink:title=" ">
<polygon fill="white" stroke="black" points="314,-183 314,-202 457,-202 457,-183 314,-183"/>
<text text-anchor="middle" x="385.5" y="-190" font-family="Helvetica,sans-Serif" font-size="10.00">representation::Bonus_GR</text>
</a>
</g>
</g>
<!-- Node1&#45;&gt;Node4 -->
<g id="edge3" class="edge">
<title>Node1&#45;&gt;Node4</title>
<path fill="none" stroke="midnightblue" d="M248.25,-158.53C278.85,-166.16 317.88,-175.89 346.32,-182.98"/>
<polygon fill="midnightblue" stroke="midnightblue" points="248.78,-155.05 238.23,-156.03 247.08,-161.85 248.78,-155.05"/>
</g>
<!-- Node7 -->
<g id="node7" class="node">
<title>Node7</title>
<g id="a_node7"><a xlink:href="classrepresentation_1_1Platform__GR.html" target="_top" xlink:title=" ">
<polygon fill="white" stroke="black" points="308,-118 308,-137 463,-137 463,-118 308,-118"/>
<text text-anchor="middle" x="385.5" y="-125" font-family="Helvetica,sans-Serif" font-size="10.00">representation::Platform_GR</text>
</a>
</g>
</g>
<!-- Node1&#45;&gt;Node7 -->
<g id="edge6" class="edge">
<title>Node1&#45;&gt;Node7</title>
<path fill="none" stroke="midnightblue" d="M282.11,-138.04C290.67,-137.16 299.36,-136.27 307.86,-135.39"/>
<polygon fill="midnightblue" stroke="midnightblue" points="281.71,-134.57 272.13,-139.07 282.43,-141.53 281.71,-134.57"/>
</g>
<!-- Node12 -->
<g id="node12" class="node">
<title>Node12</title>
<g id="a_node12"><a xlink:href="classrepresentation_1_1Player__GR.html" target="_top" xlink:title=" ">
<polygon fill="white" stroke="black" points="313.5,-80 313.5,-99 457.5,-99 457.5,-80 313.5,-80"/>
<text text-anchor="middle" x="385.5" y="-87" font-family="Helvetica,sans-Serif" font-size="10.00">representation::Player_GR</text>
</a>
</g>
</g>
<!-- Node1&#45;&gt;Node12 -->
<g id="edge11" class="edge">
<title>Node1&#45;&gt;Node12</title>
<path fill="none" stroke="midnightblue" d="M234.57,-133.39C255.63,-125.65 283.18,-115.93 308,-108.5 319.27,-105.12 331.61,-101.87 343.01,-99.04"/>
<polygon fill="midnightblue" stroke="midnightblue" points="233.25,-130.15 225.09,-136.91 235.68,-136.72 233.25,-130.15"/>
</g>
<!-- Node2 -->
<g id="node2" class="node">
<title>Node2</title>
<g id="a_node2"><a xlink:href="classlogic_1_1Observer.html" target="_top" xlink:title=" ">
<polygon fill="white" stroke="black" points="0,-137 0,-156 90,-156 90,-137 0,-137"/>
<text text-anchor="middle" x="45" y="-144" font-family="Helvetica,sans-Serif" font-size="10.00">logic::Observer</text>
</a>
</g>
</g>
<!-- Node2&#45;&gt;Node1 -->
<g id="edge1" class="edge">
<title>Node2&#45;&gt;Node1</title>
<path fill="none" stroke="midnightblue" d="M100.54,-146.5C108.75,-146.5 117.32,-146.5 125.83,-146.5"/>
<polygon fill="midnightblue" stroke="midnightblue" points="100.37,-143 90.37,-146.5 100.37,-150 100.37,-143"/>
</g>
<!-- Node5 -->
<g id="node5" class="node">
<title>Node5</title>
<g id="a_node5"><a xlink:href="classrepresentation_1_1Jetpack__GR.html" target="_top" xlink:title=" ">
<polygon fill="white" stroke="black" points="499,-235 499,-254 648,-254 648,-235 499,-235"/>
<text text-anchor="middle" x="573.5" y="-242" font-family="Helvetica,sans-Serif" font-size="10.00">representation::Jetpack_GR</text>
</a>
</g>
</g>
<!-- Node4&#45;&gt;Node5 -->
<g id="edge4" class="edge">
<title>Node4&#45;&gt;Node5</title>
<path fill="none" stroke="midnightblue" d="M439.01,-204.6C447.09,-206.73 455.3,-209.06 463,-211.5 479.36,-216.69 482.66,-220.23 499,-225.5 509.66,-228.94 521.35,-232.19 532.2,-235"/>
<polygon fill="midnightblue" stroke="midnightblue" points="439.81,-201.19 429.26,-202.1 438.07,-207.97 439.81,-201.19"/>
</g>
<!-- Node6 -->
<g id="node6" class="node">
<title>Node6</title>
<g id="a_node6"><a xlink:href="classrepresentation_1_1Spring__GR.html" target="_top" xlink:title=" ">
<polygon fill="white" stroke="black" points="501.5,-197 501.5,-216 645.5,-216 645.5,-197 501.5,-197"/>
<text text-anchor="middle" x="573.5" y="-204" font-family="Helvetica,sans-Serif" font-size="10.00">representation::Spring_GR</text>
</a>
</g>
</g>
<!-- Node4&#45;&gt;Node6 -->
<g id="edge5" class="edge">
<title>Node4&#45;&gt;Node6</title>
<path fill="none" stroke="midnightblue" d="M467.38,-198.59C478.69,-199.44 490.24,-200.31 501.35,-201.14"/>
<polygon fill="midnightblue" stroke="midnightblue" points="467.32,-195.07 457.08,-197.81 466.79,-202.05 467.32,-195.07"/>
</g>
<!-- Node8 -->
<g id="node8" class="node">
<title>Node8</title>
<g id="a_node8"><a xlink:href="classrepresentation_1_1Platform__Horizontal__GR.html" target="_top" xlink:title=" ">
<polygon fill="white" stroke="black" points="505.5,-147.5 505.5,-177.5 641.5,-177.5 641.5,-147.5 505.5,-147.5"/>
<text text-anchor="start" x="513.5" y="-165.5" font-family="Helvetica,sans-Serif" font-size="10.00">representation::Platform</text>
<text text-anchor="middle" x="573.5" y="-154.5" font-family="Helvetica,sans-Serif" font-size="10.00">_Horizontal_GR</text>
</a>
</g>
</g>
<!-- Node7&#45;&gt;Node8 -->
<g id="edge7" class="edge">
<title>Node7&#45;&gt;Node8</title>
<path fill="none" stroke="midnightblue" d="M447.4,-138.96C465.94,-142.45 486.41,-146.3 505.33,-149.86"/>
<polygon fill="midnightblue" stroke="midnightblue" points="447.8,-135.47 437.33,-137.06 446.51,-142.35 447.8,-135.47"/>
</g>
<!-- Node9 -->
<g id="node9" class="node">
<title>Node9</title>
<g id="a_node9"><a xlink:href="classrepresentation_1_1Platform__Static__GR.html" target="_top" xlink:title=" ">
<polygon fill="white" stroke="black" points="505.5,-98.5 505.5,-128.5 641.5,-128.5 641.5,-98.5 505.5,-98.5"/>
<text text-anchor="start" x="513.5" y="-116.5" font-family="Helvetica,sans-Serif" font-size="10.00">representation::Platform</text>
<text text-anchor="middle" x="573.5" y="-105.5" font-family="Helvetica,sans-Serif" font-size="10.00">_Static_GR</text>
</a>
</g>
</g>
<!-- Node7&#45;&gt;Node9 -->
<g id="edge8" class="edge">
<title>Node7&#45;&gt;Node9</title>
<path fill="none" stroke="midnightblue" d="M473.48,-120.95C484.22,-120.14 495.07,-119.33 505.46,-118.55"/>
<polygon fill="midnightblue" stroke="midnightblue" points="472.94,-117.48 463.23,-121.72 473.46,-124.46 472.94,-117.48"/>
</g>
<!-- Node10 -->
<g id="node10" class="node">
<title>Node10</title>
<g id="a_node10"><a xlink:href="classrepresentation_1_1Platform__Temporary__GR.html" target="_top" xlink:title=" ">
<polygon fill="white" stroke="black" points="505.5,-49.5 505.5,-79.5 641.5,-79.5 641.5,-49.5 505.5,-49.5"/>
<text text-anchor="start" x="513.5" y="-67.5" font-family="Helvetica,sans-Serif" font-size="10.00">representation::Platform</text>
<text text-anchor="middle" x="573.5" y="-56.5" font-family="Helvetica,sans-Serif" font-size="10.00">_Temporary_GR</text>
</a>
</g>
</g>
<!-- Node7&#45;&gt;Node10 -->
<g id="edge9" class="edge">
<title>Node7&#45;&gt;Node10</title>
<path fill="none" stroke="midnightblue" d="M443.13,-115.23C449.91,-113.24 456.67,-110.99 463,-108.5 480.03,-101.79 482.22,-95.82 499,-88.5 506.26,-85.33 514.08,-82.35 521.81,-79.64"/>
<polygon fill="midnightblue" stroke="midnightblue" points="441.93,-111.93 433.23,-117.97 443.8,-118.68 441.93,-111.93"/>
</g>
<!-- Node11 -->
<g id="node11" class="node">
<title>Node11</title>
<g id="a_node11"><a xlink:href="classrepresentation_1_1Platform__Vertical__GR.html" target="_top" xlink:title=" ">
<polygon fill="white" stroke="black" points="505.5,-0.5 505.5,-30.5 641.5,-30.5 641.5,-0.5 505.5,-0.5"/>
<text text-anchor="start" x="513.5" y="-18.5" font-family="Helvetica,sans-Serif" font-size="10.00">representation::Platform</text>
<text text-anchor="middle" x="573.5" y="-7.5" font-family="Helvetica,sans-Serif" font-size="10.00">_Vertical_GR</text>
</a>
</g>
</g>
<!-- Node7&#45;&gt;Node11 -->
<g id="edge10" class="edge">
<title>Node7&#45;&gt;Node11</title>
<path fill="none" stroke="midnightblue" d="M455.63,-113.47C458.21,-111.98 460.68,-110.32 463,-108.5 490.18,-87.11 472.61,-61.86 499,-39.5 503.1,-36.03 507.71,-33.06 512.57,-30.51"/>
<polygon fill="midnightblue" stroke="midnightblue" points="453.91,-110.42 446.49,-117.98 457.01,-116.69 453.91,-110.42"/>
</g>
</g>
</svg>
