<?xml version="1.0" encoding="UTF-8" standalone="no"?>
<!DOCTYPE svg PUBLIC "-//W3C//DTD SVG 1.1//EN"
 "http://www.w3.org/Graphics/SVG/1.1/DTD/svg11.dtd">
<!-- Generated by graphviz version 2.43.0 (0)
 -->
<!-- Title: logic::Subject Pages: 1 -->
<svg width="535pt" height="218pt"
 viewBox="0.00 0.00 535.00 218.00" xmlns="http://www.w3.org/2000/svg" xmlns:xlink="http://www.w3.org/1999/xlink">
<g id="graph0" class="graph" transform="scale(1 1) rotate(0) translate(4 214)">
<title>logic::Subject</title>
<polygon fill="white" stroke="transparent" points="-4,4 -4,-214 531,-214 531,4 -4,4"/>
<!-- Node1 -->
<g id="node1" class="node">
<title>Node1</title>
<g id="a_node1"><a xlink:title=" ">
<polygon fill="#bfbfbf" stroke="black" points="0,-114.5 0,-133.5 82,-133.5 82,-114.5 0,-114.5"/>
<text text-anchor="middle" x="41" y="-121.5" font-family="Helvetica,sans-Serif" font-size="10.00">logic::Subject</text>
</a>
</g>
</g>
<!-- Node2 -->
<g id="node2" class="node">
<title>Node2</title>
<g id="a_node2"><a xlink:href="classlogic_1_1EntityModel.html" target="_top" xlink:title=" ">
<polygon fill="white" stroke="black" points="118,-114.5 118,-133.5 222,-133.5 222,-114.5 118,-114.5"/>
<text text-anchor="middle" x="170" y="-121.5" font-family="Helvetica,sans-Serif" font-size="10.00">logic::EntityModel</text>
</a>
</g>
</g>
<!-- Node1&#45;&gt;Node2 -->
<g id="edge1" class="edge">
<title>Node1&#45;&gt;Node2</title>
<path fill="none" stroke="midnightblue" d="M92.26,-124C100.69,-124 109.44,-124 117.89,-124"/>
<polygon fill="midnightblue" stroke="midnightblue" points="92.18,-120.5 82.18,-124 92.18,-127.5 92.18,-120.5"/>
</g>
<!-- Node3 -->
<g id="node3" class="node">
<title>Node3</title>
<g id="a_node3"><a xlink:href="classlogic_1_1BGTile.html" target="_top" xlink:title=" ">
<polygon fill="white" stroke="black" points="263,-180.5 263,-199.5 341,-199.5 341,-180.5 263,-180.5"/>
<text text-anchor="middle" x="302" y="-187.5" font-family="Helvetica,sans-Serif" font-size="10.00">logic::BGTile</text>
</a>
</g>
</g>
<!-- Node2&#45;&gt;Node3 -->
<g id="edge2" class="edge">
<title>Node2&#45;&gt;Node3</title>
<path fill="none" stroke="midnightblue" d="M196.67,-138.56C213.84,-148.13 237.06,-160.74 258,-171 264.6,-174.23 271.87,-177.54 278.53,-180.47"/>
<polygon fill="midnightblue" stroke="midnightblue" points="198.23,-135.42 187.8,-133.59 194.81,-141.53 198.23,-135.42"/>
</g>
<!-- Node4 -->
<g id="node4" class="node">
<title>Node4</title>
<g id="a_node4"><a xlink:href="classlogic_1_1Bonus.html" target="_top" xlink:title=" ">
<polygon fill="white" stroke="black" points="264,-142.5 264,-161.5 340,-161.5 340,-142.5 264,-142.5"/>
<text text-anchor="middle" x="302" y="-149.5" font-family="Helvetica,sans-Serif" font-size="10.00">logic::Bonus</text>
</a>
</g>
</g>
<!-- Node2&#45;&gt;Node4 -->
<g id="edge3" class="edge">
<title>Node2&#45;&gt;Node4</title>
<path fill="none" stroke="midnightblue" d="M225.15,-135.66C238.14,-138.46 251.72,-141.39 263.74,-143.98"/>
<polygon fill="midnightblue" stroke="midnightblue" points="225.89,-132.24 215.38,-133.56 224.41,-139.08 225.89,-132.24"/>
</g>
<!-- Node7 -->
<g id="node7" class="node">
<title>Node7</title>
<g id="a_node7"><a xlink:href="classlogic_1_1Platform.html" target="_top" xlink:title=" ">
<polygon fill="white" stroke="black" points="258,-95.5 258,-114.5 346,-114.5 346,-95.5 258,-95.5"/>
<text text-anchor="middle" x="302" y="-102.5" font-family="Helvetica,sans-Serif" font-size="10.00">logic::Platform</text>
</a>
</g>
</g>
<!-- Node2&#45;&gt;Node7 -->
<g id="edge6" class="edge">
<title>Node2&#45;&gt;Node7</title>
<path fill="none" stroke="midnightblue" d="M232.09,-115.07C240.74,-113.81 249.49,-112.53 257.71,-111.33"/>
<polygon fill="midnightblue" stroke="midnightblue" points="231.4,-111.64 222.01,-116.55 232.41,-118.56 231.4,-111.64"/>
</g>
<!-- Node12 -->
<g id="node12" class="node">
<title>Node12</title>
<g id="a_node12"><a xlink:href="classlogic_1_1Player.html" target="_top" xlink:title=" ">
<polygon fill="white" stroke="black" points="263.5,-57.5 263.5,-76.5 340.5,-76.5 340.5,-57.5 263.5,-57.5"/>
<text text-anchor="middle" x="302" y="-64.5" font-family="Helvetica,sans-Serif" font-size="10.00">logic::Player</text>
</a>
</g>
</g>
<!-- Node2&#45;&gt;Node12 -->
<g id="edge11" class="edge">
<title>Node2&#45;&gt;Node12</title>
<path fill="none" stroke="midnightblue" d="M202.06,-110.38C225.84,-99.95 258.05,-85.83 279.17,-76.57"/>
<polygon fill="midnightblue" stroke="midnightblue" points="200.51,-107.24 192.76,-114.46 203.32,-113.65 200.51,-107.24"/>
</g>
<!-- Node5 -->
<g id="node5" class="node">
<title>Node5</title>
<g id="a_node5"><a xlink:href="classlogic_1_1Jetpack.html" target="_top" xlink:title=" ">
<polygon fill="white" stroke="black" points="413.5,-190.5 413.5,-209.5 495.5,-209.5 495.5,-190.5 413.5,-190.5"/>
<text text-anchor="middle" x="454.5" y="-197.5" font-family="Helvetica,sans-Serif" font-size="10.00">logic::Jetpack</text>
</a>
</g>
</g>
<!-- Node4&#45;&gt;Node5 -->
<g id="edge4" class="edge">
<title>Node4&#45;&gt;Node5</title>
<path fill="none" stroke="midnightblue" d="M336.97,-165.25C350.84,-170.45 367.09,-176.29 382,-181 392.66,-184.36 404.33,-187.64 415.09,-190.49"/>
<polygon fill="midnightblue" stroke="midnightblue" points="337.94,-161.88 327.35,-161.6 335.46,-168.42 337.94,-161.88"/>
</g>
<!-- Node6 -->
<g id="node6" class="node">
<title>Node6</title>
<g id="a_node6"><a xlink:href="classlogic_1_1Spring.html" target="_top" xlink:title=" ">
<polygon fill="white" stroke="black" points="416,-152.5 416,-171.5 493,-171.5 493,-152.5 416,-152.5"/>
<text text-anchor="middle" x="454.5" y="-159.5" font-family="Helvetica,sans-Serif" font-size="10.00">logic::Spring</text>
</a>
</g>
</g>
<!-- Node4&#45;&gt;Node6 -->
<g id="edge5" class="edge">
<title>Node4&#45;&gt;Node6</title>
<path fill="none" stroke="midnightblue" d="M350.28,-155.14C371.45,-156.55 396.06,-158.18 415.94,-159.5"/>
<polygon fill="midnightblue" stroke="midnightblue" points="350.41,-151.64 340.2,-154.47 349.95,-158.63 350.41,-151.64"/>
</g>
<!-- Node8 -->
<g id="node8" class="node">
<title>Node8</title>
<g id="a_node8"><a xlink:href="classlogic_1_1Platform__Horizontal.html" target="_top" xlink:title=" ">
<polygon fill="white" stroke="black" points="383,-114.5 383,-133.5 526,-133.5 526,-114.5 383,-114.5"/>
<text text-anchor="middle" x="454.5" y="-121.5" font-family="Helvetica,sans-Serif" font-size="10.00">logic::Platform_Horizontal</text>
</a>
</g>
</g>
<!-- Node7&#45;&gt;Node8 -->
<g id="edge7" class="edge">
<title>Node7&#45;&gt;Node8</title>
<path fill="none" stroke="midnightblue" d="M356.06,-111.7C364.72,-112.79 373.8,-113.94 382.8,-115.08"/>
<polygon fill="midnightblue" stroke="midnightblue" points="356.49,-108.22 346.13,-110.44 355.61,-115.17 356.49,-108.22"/>
</g>
<!-- Node9 -->
<g id="node9" class="node">
<title>Node9</title>
<g id="a_node9"><a xlink:href="classlogic_1_1Platform__Static.html" target="_top" xlink:title=" ">
<polygon fill="white" stroke="black" points="394,-76.5 394,-95.5 515,-95.5 515,-76.5 394,-76.5"/>
<text text-anchor="middle" x="454.5" y="-83.5" font-family="Helvetica,sans-Serif" font-size="10.00">logic::Platform_Static</text>
</a>
</g>
</g>
<!-- Node7&#45;&gt;Node9 -->
<g id="edge8" class="edge">
<title>Node7&#45;&gt;Node9</title>
<path fill="none" stroke="midnightblue" d="M356.14,-98.29C368.33,-96.75 381.37,-95.11 393.82,-93.53"/>
<polygon fill="midnightblue" stroke="midnightblue" points="355.61,-94.83 346.13,-99.56 356.49,-101.78 355.61,-94.83"/>
</g>
<!-- Node10 -->
<g id="node10" class="node">
<title>Node10</title>
<g id="a_node10"><a xlink:href="classlogic_1_1Platform__Temporary.html" target="_top" xlink:title=" ">
<polygon fill="white" stroke="black" points="382,-38.5 382,-57.5 527,-57.5 527,-38.5 382,-38.5"/>
<text text-anchor="middle" x="454.5" y="-45.5" font-family="Helvetica,sans-Serif" font-size="10.00">logic::Platform_Temporary</text>
</a>
</g>
</g>
<!-- Node7&#45;&gt;Node10 -->
<g id="edge9" class="edge">
<title>Node7&#45;&gt;Node10</title>
<path fill="none" stroke="midnightblue" d="M334.77,-91.26C338.57,-89.53 342.38,-87.75 346,-86 362.28,-78.12 365.15,-73.59 382,-67 391.21,-63.4 401.35,-60.25 411.02,-57.6"/>
<polygon fill="midnightblue" stroke="midnightblue" points="333.15,-88.15 325.45,-95.43 336.01,-94.54 333.15,-88.15"/>
</g>
<!-- Node11 -->
<g id="node11" class="node">
<title>Node11</title>
<g id="a_node11"><a xlink:href="classlogic_1_1Platform__Vertical.html" target="_top" xlink:title=" ">
<polygon fill="white" stroke="black" points="389.5,-0.5 389.5,-19.5 519.5,-19.5 519.5,-0.5 389.5,-0.5"/>
<text text-anchor="middle" x="454.5" y="-7.5" font-family="Helvetica,sans-Serif" font-size="10.00">logic::Platform_Vertical</text>
</a>
</g>
</g>
<!-- Node7&#45;&gt;Node11 -->
<g id="edge10" class="edge">
<title>Node7&#45;&gt;Node11</title>
<path fill="none" stroke="midnightblue" d="M340.36,-90.24C342.34,-88.93 344.24,-87.52 346,-86 368.69,-66.43 357.85,-46.74 382,-29 387.28,-25.12 393.29,-22.03 399.54,-19.58"/>
<polygon fill="midnightblue" stroke="midnightblue" points="338.24,-87.42 331.26,-95.39 341.69,-93.51 338.24,-87.42"/>
</g>
</g>
</svg>
